<svg xmlns="http://www.w3.org/2000/svg" xmlns:xlink="http://www.w3.org/1999/xlink" version="1.1" width="512" height="512" x="0" y="0" viewBox="0 0 512 512" style="enable-background:new 0 0 512 512" xml:space="preserve" id="1246687343" class="svg u_1246687343" data-icon-custom="true" data-icon-name="002-electric-panel.svg"> <g> <path d="M434.526 164.899V15c0-8.284-6.716-15-15-15H51.257c-8.284 0-15 6.716-15 15v438c0 8.284 6.716 15 15 15h55.706v29c0 8.284 6.716 15 15 15s15-6.716 15-15v-29h30v29c0 8.284 6.716 15 15 15s15-6.716 15-15v-29h222.563c8.284 0 15-6.716 15-15V273.269c23.738-6.58 41.217-28.38 41.217-54.185s-17.478-47.605-41.217-54.185zm-110.21 164.454h-177.85c-14.099 0-27.009-7.117-34.535-19.039s-8.399-26.639-2.336-39.367L198.52 84.285c6.84-14.357 20.968-23.276 36.871-23.276s30.031 8.918 36.871 23.276l88.925 186.662c6.063 12.729 5.19 27.445-2.336 39.367s-20.436 19.039-34.535 19.039zm6.761 45c0 8.284-6.716 15-15 15H154.706c-8.284 0-15-6.716-15-15s6.716-15 15-15h161.371c8.284 0 15 6.716 15 15z" fill="#ffffff" opacity="1" data-original="#000000"></path> 
 <path d="M245.179 97.188c-2.656-5.576-7.729-6.178-9.787-6.178s-7.131.602-9.787 6.178L136.68 283.849c-2.32 4.87-.339 8.931.62 10.45s3.772 5.054 9.167 5.054h177.85c5.395 0 8.208-3.534 9.167-5.054s2.94-5.58.62-10.45zm20.793 127.741-21.402 37.079c-2.778 4.813-7.821 7.504-13.005 7.504-2.545 0-5.123-.648-7.485-2.011-7.175-4.142-9.634-13.315-5.492-20.49l8.416-14.581h-9.2a15.001 15.001 0 0 1-13.119-22.272l19.501-35.178c4.017-7.245 13.146-9.863 20.392-5.847s9.863 13.146 5.847 20.392l-7.154 12.905h9.712a15 15 0 0 1 12.989 22.499z" fill="#ffffff" opacity="1" data-original="#000000"></path> 
</g> 
</svg>