<svg xmlns="http://www.w3.org/2000/svg" xmlns:xlink="http://www.w3.org/1999/xlink" version="1.1" width="512" height="512" x="0" y="0" viewBox="0 0 512 512" style="enable-background:new 0 0 512 512" xml:space="preserve" id="1980640627" class="svg u_1980640627" data-icon-custom="true" data-icon-name="001-electricity.svg"> <g> <path d="M71.002 256.001c0-77.879 47.891-143.606 114.279-171.048h.01l21.3-38.26C112.578 68.687 41.002 153.352 41.002 256.001c0 96.593 63.887 179.038 152.718 205.828l2.26-30.78c-73.85-25.286-124.978-95.126-124.978-175.048zM318.279 50.173l-2.26 30.78c73.85 25.286 124.979 95.125 124.979 175.048 0 77.803-47.835 143.583-114.279 171.048h-.01l-21.3 38.26c94.014-21.994 165.588-106.659 165.588-209.308 0-96.591-63.886-179.039-152.718-205.828z" fill="#ffffff" opacity="1" data-original="#000000"></path> 
 <path d="M398.93 220.509a15 15 0 0 0-12.932-7.399H276.241L290.7 16.101A15 15 0 0 0 280.04.632a14.994 14.994 0 0 0-17.404 7.072L112.897 276.592a15 15 0 0 0 13.105 22.297H235.76l-14.46 197.01a14.999 14.999 0 0 0 10.661 15.468c6.797 2.036 14.01-.976 17.404-7.072l149.738-268.887a15.002 15.002 0 0 0-.173-14.899z" fill="#ffffff" opacity="1" data-original="#000000"></path> 
</g> 
</svg>